<svg width="127" height="28" viewBox="0 0 127 28" fill="none" xmlns="http://www.w3.org/2000/svg">
<path d="M71.0891 1H65.9109C63.751 1 62 2.72008 62 4.8419V24.1581C62 26.2799 63.751 28 65.9109 28H71.0891C73.249 28 75 26.2799 75 24.1581V4.8419C75 2.72008 73.249 1 71.0891 1Z" fill="#535F5B"/>
<path d="M79.0342 24.153V4.84697C79.0342 2.35356 80.3339 1 82.728 1H87.5847C89.9788 1 91.2785 2.35356 91.2785 4.84697V9.97625H96.3062C98.7003 9.97625 100 11.3298 100 13.8232V24.153C100 26.6464 98.7003 28 96.3062 28H82.6938C80.2997 28 79 26.6464 79 24.153H79.0342Z" fill="#535F5B"/>
<path d="M108.08 24.153V17.029H105.04C103.073 17.029 102 15.6755 102 13.1821V4.84697C102 2.35356 103.359 1 105.863 1H123.137C125.641 1 127 2.35356 127 4.84697V13.1821C127 15.6755 125.927 17.029 123.96 17.029H120.92V24.153C120.92 26.6464 119.561 28 117.057 28H111.979C109.475 28 108.116 26.6464 108.116 24.153H108.08Z" fill="#535F5B"/>
<path d="M58.9641 13.0039C58.9641 22.9201 54.0811 28 45.4641 28C36.8471 28 32 22.9549 32 13.0039V4.75773C32 2.32217 33.3644 1 35.8777 1H41.8378C44.3511 1 45.7154 2.32217 45.7154 4.75773V9.69845C45.7154 11.5425 47.1875 12.8995 49.1981 12.8995C51.2088 12.8995 52.6808 11.5425 52.6808 9.69845V4.75773C52.6808 2.32217 53.7939 1 55.8404 1C57.887 1 59 2.32217 59 4.75773V13.0387L58.9641 13.0039Z" fill="#535F5B"/>
<path d="M27.5269 22.3496C29.1039 20.1542 30 17.455 30 14.2879C30 6.01028 23.6201 0 15.0179 0C6.41577 0 0 6.01028 0 14.2879C0 22.5656 5.91398 28 15.5197 28H26.8817C29.6774 28 30.8961 25.8406 28.9247 23.7892L27.5269 22.3496ZM21.5771 13.1362H18.1004C16.0932 13.1362 14.6237 11.7326 14.6237 9.82519C14.6237 7.91774 16.0932 6.51414 18.1004 6.51414C20.1075 6.51414 21.5771 7.91774 21.5771 9.82519V13.1362Z" fill="#535F5B"/>
</svg>
